<?xml version="1.0" ?><svg xmlns="http://www.w3.org/2000/svg" xmlns:xlink="http://www.w3.org/1999/xlink" version="1.1" viewBox="0 0 512 512" style="enable-background:new 0 0 512 512;" xml:space="preserve"  width="48px" height="48px"><g id="_x30_2_x2C__Robot_x2C__Ai_x2C__Chatbot_x2C__Robots_x2C__Metalicm_x2C__Electronics_x2C__Industry_x2C__Communication"><g><g><path style="fill:#283954;" d="M421,431.849V421c0-16.542-13.458-30-30-30h-50v-40c0-5.522-4.478-10-10-10H181     c-5.522,0-10,4.478-10,10v40h-50c-16.542,0-30,13.458-30,30v10.849C62.661,436.626,41,461.324,41,491v10c0,5.522,4.478,10,10,10     c20.817,0,393.754,0,410,0c5.522,0,10-4.478,10-10v-10C471,461.324,449.339,436.626,421,431.849z M191,361h130v30H191V361z      M91,452.266V491H61C61,472.396,73.767,456.717,91,452.266z M111,421c0-5.514,4.486-10,10-10c28.216,0,241.635,0,270,0     c5.514,0,10,4.486,10,10c0,18.912,0,57.544,0,70h-40v-40c0-5.522-4.478-10-10-10H161c-5.522,0-10,4.478-10,10v40h-40     C111,478.715,111,439.471,111,421z M171,491v-30h170v30H171z M421,491v-38.734c17.233,4.451,30,20.13,30,38.734H421z"/><path style="fill:#283954;" d="M71,281c5.522,0,10-4.478,10-10s-4.478-10-10-10H41c-11.028,0-20-8.972-20-20v-30     c0-11.028,8.972-20,20-20h30c5.522,0,10-4.477,10-10V61c0-5.523-4.478-10-10-10s-10,4.477-10,10v110H41     c-22.056,0-40,17.944-40,40v30c0,22.056,17.944,40,40,40H71z"/><path style="fill:#283954;" d="M471,171h-30c-5.522,0-10,4.477-10,10s4.478,10,10,10h30c11.028,0,20,8.972,20,20v30     c0,11.028-8.972,20-20,20h-30c-5.522,0-10,4.478-10,10s4.478,10,10,10h30c22.056,0,40-17.944,40-40v-30     C511,188.944,493.056,171,471,171z"/></g><g><path style="fill:#5596FB;" d="M401,101H111c-27.57,0-50,22.43-50,50v160c0,27.57,22.43,50,50,50h290c27.57,0,50-22.43,50-50V151     C451,123.43,428.57,101,401,101z M431,311c0,16.542-13.458,30-30,30H111c-16.542,0-30-13.458-30-30V151c0-16.542,13.458-30,30-30     h290c16.542,0,30,13.458,30,30V311z"/><path style="fill:#5596FB;" d="M106,36c0-19.299-15.701-35-35-35S36,16.701,36,36s15.701,35,35,35S106,55.299,106,36z M56,36     c0-8.271,6.729-15,15-15s15,6.729,15,15s-6.729,15-15,15S56,44.271,56,36z"/><path style="fill:#5596FB;" d="M371,151H141c-16.542,0-30,13.458-30,30v100c0,16.542,13.458,30,30,30h230     c16.542,0,30-13.458,30-30V181C401,164.458,387.542,151,371,151z M381,281c0,5.514-4.486,10-10,10H141c-5.514,0-10-4.486-10-10     V181c0-5.514,4.486-10,10-10h230c5.514,0,10,4.486,10,10V281z"/><path style="fill:#5596FB;" d="M181,201c-16.542,0-30,13.458-30,30s13.458,30,30,30s30-13.458,30-30S197.542,201,181,201z      M181,241c-5.514,0-10-4.486-10-10s4.486-10,10-10s10,4.486,10,10S186.514,241,181,241z"/><path style="fill:#5596FB;" d="M331,201c-16.542,0-30,13.458-30,30s13.458,30,30,30s30-13.458,30-30S347.542,201,331,201z      M331,241c-5.514,0-10-4.486-10-10s4.486-10,10-10s10,4.486,10,10S336.514,241,331,241z"/></g></g></g><g id="Layer_1"/></svg>